<svg width="503" height="234" viewBox="0 0 503 234" fill="none" xmlns="http://www.w3.org/2000/svg">
<mask id="mask0_3028_84" style="mask-type:luminance" maskUnits="userSpaceOnUse" x="0" y="0" width="475" height="234">
<path d="M474.254 0H0V233.588H474.254V0Z" fill="white"/>
</mask>
<g mask="url(#mask0_3028_84)">
<path d="M271.458 79.6456C270.987 80.5453 270.435 81.4251 269.844 82.2462C269.016 83.4 268.11 84.4554 267.108 85.4527C262.479 90.0477 256.059 92.8437 248.892 92.7269C248.871 91.2602 249.009 89.8134 249.228 88.425C245.445 90.5754 241.056 91.7879 236.31 91.7097C236.25 86.9976 237.471 82.6373 239.616 78.8833C238.218 79.0981 236.763 79.2351 235.284 79.1961C235.167 70.5732 239.343 62.9866 245.838 58.3923C246.666 57.8055 247.554 57.258 248.46 56.7891C248.439 56.8864 248.418 57.0039 248.4 57.1019C250.644 57.395 252.849 57.9814 254.976 58.8613C256.374 59.4286 257.715 60.1124 259.014 60.9338C260.649 61.9503 262.185 63.1628 263.601 64.5707C265.02 65.9783 266.22 67.5033 267.246 69.1264C268.071 70.4168 268.779 71.7461 269.352 73.1345C270.237 75.2464 270.828 77.4364 271.125 79.6654C271.26 79.6654 271.359 79.6456 271.458 79.6456Z" fill="#FF9700"/>
<path d="M269.348 73.1919C268.421 76.6529 266.609 79.8201 264.011 82.4009C261.155 85.2361 257.591 87.1325 253.712 87.9539L254.915 80.2108L247.037 84.6692C245.207 85.7253 243.218 86.4681 241.13 86.9176C241.583 84.8649 242.351 82.8897 243.395 81.0521L247.883 73.2308L240.086 74.4235C240.914 70.5714 242.822 67.0326 245.678 64.1977C248.276 61.6169 251.468 59.8176 254.954 58.8984C256.352 59.4654 257.69 60.1503 258.989 60.9717C260.624 61.9882 262.16 63.2003 263.579 64.6079C264.995 66.0161 266.198 67.5412 267.221 69.1639C268.067 70.4738 268.775 71.8034 269.348 73.1919Z" fill="#FCB73D"/>
<path d="M268.159 99.3256C268.673 98.8952 269.203 98.4263 269.695 97.9177C274.64 93.0099 277.337 86.7334 277.811 80.3006C278.398 72.5186 275.701 64.5221 269.695 58.5585C263.689 52.5946 255.655 49.9158 247.798 50.5026C241.339 50.9719 235.001 53.6507 230.056 58.5585C229.564 59.0473 229.09 59.575 228.641 60.0836C229.586 52.5946 232.934 45.3407 238.72 39.5923C244.135 34.2155 250.853 30.9498 257.843 29.7769C268.75 27.9582 280.348 31.2238 288.779 39.5923C297.184 47.9413 300.494 59.4769 298.664 70.3097C297.482 77.27 294.194 83.9375 288.779 89.2951C283.006 95.0828 275.701 98.4064 268.159 99.3256Z" fill="#CCCCCC"/>
<path d="M298.709 70.3367C292.409 74.6581 285.398 78.0794 277.856 80.3282C278.447 72.5462 275.747 64.549 269.741 58.5855C263.735 52.6216 255.704 49.9434 247.844 50.5295C250.109 43.0218 253.556 36.0606 257.909 29.8236C268.817 28.0054 280.415 31.2705 288.845 39.6391C297.233 47.9682 300.543 59.5046 298.709 70.3367Z" fill="#BCBCBC"/>
<path d="M271.141 79.7164C270.628 76.0204 269.347 72.4228 267.262 69.1773C266.236 67.5546 265.019 66.0292 263.599 64.6213C262.18 63.2137 260.644 62.0016 259.012 60.9844C255.742 58.9118 252.118 57.6413 248.398 57.1327C254.266 29.1139 276.574 7.05838 304.874 1.40751C309.499 0.48886 314.284 0 319.207 0H328.682V9.4048C328.682 14.2732 328.186 19.0442 327.263 23.6391C321.571 51.717 299.359 73.8894 271.141 79.7164Z" fill="#A10214"/>
<path d="M306.933 21.6126C300.75 15.4729 290.727 15.4729 284.544 21.6126C281.45 24.6825 279.893 28.7104 279.914 32.7383C279.936 36.7464 281.472 40.7743 284.544 43.8244C287.612 46.8749 291.65 48.4194 295.689 48.4392C299.762 48.4583 303.822 46.9141 306.911 43.8244C313.116 37.7044 313.116 27.7326 306.933 21.6126Z" fill="white"/>
<path d="M295.747 43.1636C301.566 43.1636 306.28 38.4802 306.28 32.7029C306.28 26.9256 301.566 22.2422 295.747 22.2422C289.929 22.2422 285.211 26.9256 285.211 32.7029C285.211 38.4802 289.929 43.1636 295.747 43.1636Z" fill="#007500"/>
<path d="M277.638 50.6797C267.105 54.3357 255.564 65.7939 251.883 76.2349C262.398 72.5782 273.936 61.1398 277.638 50.6797Z" fill="#CECECE"/>
<path d="M327.283 23.6195L304.891 1.40751C309.52 0.48886 314.305 0 319.228 0H328.699V9.4048C328.699 14.2732 328.207 19.0245 327.283 23.6195Z" fill="#D3D3D3"/>
<path d="M0.5625 95.1042V22.7553C0.5625 21.7027 1.08949 20.7987 2.00827 20.2755L36.4621 0.646819C37.3727 0.128144 38.4104 0.128144 39.321 0.646819L73.7745 20.2755C74.6929 20.7987 75.2199 21.7027 75.2199 22.7553V95.1042C75.2199 96.1851 74.6618 97.1117 73.7044 97.6224L60.7899 104.51C59.8736 104.999 58.8472 104.975 57.9546 104.445C57.062 103.914 56.5556 103.026 56.5556 101.992V80.1737C56.5556 79.1396 56.0491 78.2519 55.1565 77.7214C54.2639 77.1902 53.2372 77.1668 52.3209 77.6556L39.251 84.626C38.3761 85.0932 37.407 85.0932 36.5322 84.626L23.4615 77.6556C22.5452 77.1668 21.5188 77.1902 20.6263 77.7214C19.7337 78.2519 19.2272 79.1396 19.2272 80.1737V101.992C19.2272 103.026 18.7207 103.914 17.8282 104.445C16.9356 104.975 15.9088 104.999 14.9925 104.51L2.07834 97.6224C1.12063 97.1117 0.5625 96.1851 0.5625 95.1042ZM56.5556 52.2696V34.1554C56.5556 33.1361 56.0643 32.2602 55.1915 31.7241L39.4028 22.0273C38.4536 21.4445 37.3295 21.4445 36.3803 22.0273L20.5912 31.7241C19.7184 32.2602 19.2272 33.1361 19.2272 34.1554V52.2696C19.2272 53.3504 19.7853 54.277 20.7427 54.7877L36.5322 63.2085C37.407 63.6754 38.3761 63.6754 39.251 63.2085L55.0397 54.7877C55.9974 54.277 56.5556 53.3504 56.5556 52.2696ZM165.051 22.8998V62.4345C165.051 63.4835 164.528 64.3843 163.614 64.9091L129.21 84.6487C128.27 85.1881 127.185 85.1718 126.262 84.6048L113.445 76.7336C112.534 76.1744 111.468 76.15 110.533 76.6689C109.598 77.187 109.059 78.1001 109.059 79.1643V101.795C109.059 102.859 108.519 103.772 107.583 104.29C106.649 104.809 105.583 104.785 104.672 104.225L91.7579 96.2941C90.8851 95.7579 90.3939 94.8823 90.3939 93.8627V22.8998C90.3939 21.8506 90.9177 20.95 91.8315 20.4251L126.285 0.656945C127.2 0.132082 128.246 0.132082 129.161 0.656945L163.614 20.4251C164.528 20.95 165.051 21.8506 165.051 22.8998ZM110.423 53.4595L126.206 63.1523C127.158 63.7373 128.287 63.7355 129.237 63.1473L144.88 53.4605C145.747 52.9233 146.235 52.0508 146.235 51.0354V32.9077C146.235 31.8304 145.681 30.9061 144.728 30.3936L129.085 21.9823C128.209 21.5109 127.236 21.5097 126.358 21.9778L110.574 30.3959C109.616 30.9067 109.059 31.8332 109.059 32.9139V51.028C109.059 52.0477 109.55 52.9233 110.423 53.4595ZM185.365 2.96174L198.127 10.7604C199.001 11.2954 199.497 12.173 199.497 13.1946V102.426C199.497 103.462 198.987 104.35 198.092 104.881C197.2 105.411 196.17 105.432 195.253 104.94L182.491 98.0775C181.539 97.565 180.983 96.6406 180.983 95.5633V5.39592C180.983 4.33267 181.521 3.42022 182.456 2.90154C183.39 2.38287 184.455 2.40481 185.365 2.96174Z" fill="#E6E7E8"/>
<path d="M55.9163 138.394L75.9563 127.313C76.8691 126.809 77.9007 126.82 78.8029 127.343L107.676 144.096C108.584 144.623 109.102 145.519 109.102 146.564V221.794C109.102 222.874 108.544 223.801 107.586 224.312L94.6727 231.2C93.7564 231.688 92.7297 231.665 91.8371 231.134C90.9445 230.603 90.438 229.716 90.438 228.682V157.92C90.438 156.932 89.9797 156.084 89.1512 155.538L78.9859 148.841C77.9977 148.19 76.7806 148.193 75.796 148.849L65.7641 155.537C64.9437 156.084 64.4903 156.928 64.4903 157.91V221.794C64.4903 222.874 63.9322 223.801 62.9745 224.312L50.0603 231.2C49.144 231.688 48.1173 231.665 47.2247 231.134C46.3324 230.603 45.8256 229.716 45.8256 228.682V157.91C45.8256 156.928 45.3722 156.084 44.5519 155.537L34.4435 148.799C33.4968 148.168 32.3409 148.138 31.363 148.722L19.908 155.553C19.0172 156.084 18.5122 156.971 18.5122 158.004V221.801C18.5122 222.878 17.9583 223.802 17.0052 224.314L4.24315 231.177C3.32685 231.669 2.29765 231.648 1.40294 231.118C0.508232 230.588 0 229.699 0 228.663V146.595C0 145.534 0.535835 144.624 1.46594 144.104L31.4823 127.33C32.4021 126.816 33.4476 126.827 34.3554 127.361L53.0548 138.356C53.9587 138.888 54.9986 138.901 55.9163 138.394ZM123.973 221.643V149.294C123.973 148.241 124.5 147.338 125.418 146.814L159.872 127.186C160.783 126.667 161.821 126.667 162.731 127.186L197.183 146.814C198.103 147.338 198.631 148.241 198.631 149.294V221.643C198.631 222.724 198.072 223.65 197.116 224.161L184.201 231.049C183.285 231.538 182.258 231.514 181.363 230.983C180.471 230.453 179.965 229.565 179.965 228.531V206.712C179.965 205.678 179.459 204.79 178.567 204.26C177.675 203.729 176.649 203.705 175.732 204.194L162.661 211.165C161.786 211.632 160.817 211.632 159.942 211.165L146.872 204.194C145.955 203.705 144.929 203.729 144.036 204.26C143.144 204.79 142.637 205.678 142.637 206.712V228.531C142.637 229.565 142.131 230.453 141.238 230.983C140.346 231.514 139.319 231.538 138.403 231.049L125.489 224.161C124.531 223.65 123.973 222.724 123.973 221.643ZM179.965 178.808V160.694C179.965 159.675 179.473 158.799 178.602 158.263L162.813 148.566C161.864 147.983 160.74 147.983 159.791 148.566L144.001 158.263C143.129 158.799 142.637 159.675 142.637 160.694V178.808C142.637 179.889 143.195 180.816 144.153 181.326L159.942 189.747C160.817 190.214 161.786 190.214 162.661 189.747L178.45 181.326C179.406 180.816 179.965 179.889 179.965 178.808ZM278.603 184.975L261.055 195.761C260.163 196.308 259.668 197.213 259.693 198.255C259.714 199.296 260.248 200.178 261.165 200.686L278.493 210.318C279.424 210.837 279.965 211.749 279.965 212.812V227.56C279.965 228.613 279.438 229.517 278.518 230.04C277.598 230.563 276.546 230.557 275.633 230.024L239.717 209.046C238.861 208.547 237.891 208.509 236.999 208.941L234.083 210.353C233.071 210.844 232.469 211.803 232.469 212.922V227.758C232.469 228.794 231.96 229.682 231.064 230.213C230.172 230.743 229.142 230.764 228.226 230.272L215.463 223.41C214.511 222.897 213.956 221.973 213.956 220.895V137.019C213.956 135.997 214.451 135.119 215.325 134.584L228.088 126.786C228.997 126.229 230.063 126.207 230.997 126.726C231.931 127.244 232.469 128.156 232.469 129.22V184.896C232.469 185.934 232.979 186.825 233.878 187.355C234.777 187.884 235.807 187.901 236.723 187.403L259.806 174.846C260.751 174.331 261.3 173.411 261.3 172.338V141.706C261.3 140.672 261.806 139.784 262.698 139.254C263.589 138.722 264.619 138.699 265.532 139.188L278.447 146.075C279.406 146.586 279.965 147.512 279.965 148.593V182.545C279.965 183.564 279.473 184.439 278.603 184.975ZM438.511 128.103L472.82 147.867C473.733 148.393 474.254 149.292 474.254 150.34V189.826C474.254 190.903 473.698 191.826 472.746 192.339L460.093 199.144C459.166 199.642 458.617 200.524 458.585 201.569C458.554 202.615 459.046 203.529 459.941 204.082L472.898 212.107C473.765 212.644 474.254 213.517 474.254 214.533V229.356C474.254 230.41 473.726 231.315 472.802 231.838C471.882 232.36 470.831 232.352 469.914 231.816L422.599 204.03C421.686 203.494 420.631 203.486 419.711 204.008C418.791 204.531 418.26 205.436 418.26 206.49V229.238C418.26 230.302 417.722 231.216 416.787 231.734C415.85 232.252 414.784 232.228 413.875 231.669L400.96 223.738C400.09 223.202 399.598 222.326 399.598 221.307V150.347C399.598 149.295 400.121 148.393 401.038 147.869L435.637 128.098C436.554 127.575 437.598 127.577 438.511 128.103ZM435.719 149.411L419.785 157.842C418.823 158.351 418.26 159.281 418.26 160.365V178.465C418.26 179.488 418.755 180.367 419.633 180.902L435.57 190.609C436.519 191.187 437.637 191.185 438.582 190.604L454.377 180.903C455.252 180.367 455.74 179.491 455.74 178.472V160.358C455.74 159.277 455.184 158.35 454.225 157.84L438.43 149.415C437.559 148.95 436.593 148.949 435.719 149.411ZM357.304 189.442C357.304 182.839 357.679 179.712 357.396 172.304C357.357 171.303 356.847 170.459 355.98 169.951L339.927 160.564C338.999 160.021 337.927 160.023 337 160.569L318.667 171.38C317.768 171.909 317.258 172.8 317.258 173.838V195.222C317.258 196.264 317.771 197.159 318.677 197.687L355.591 219.207C356.497 219.735 357.014 220.634 357.01 221.679C357.01 222.724 356.49 223.62 355.58 224.144L339.912 233.174C338.989 233.705 337.934 233.702 337.014 233.167L297.293 210.011C296.387 209.483 295.874 208.588 295.874 207.546V161.35C295.874 160.304 296.391 159.407 297.3 158.881L337.046 135.878C337.948 135.356 338.978 135.346 339.891 135.85L381.548 158.891C382.485 159.409 383.023 160.323 383.023 161.388C383.023 166.342 382.96 171.19 382.783 174.301C382.744 174.994 382.843 175.957 382.192 176.395C376.547 180.211 363.469 187.159 358.84 189.669C357.962 190.145 357.304 189.876 357.304 189.442Z" fill="url(#paint0_linear_3028_84)"/>
<path fill-rule="evenodd" clip-rule="evenodd" d="M338.162 169.753L343.711 173.23L349.25 176.704C349.558 176.898 349.735 177.233 349.735 177.624V184.565V191.506C349.735 191.896 349.558 192.232 349.25 192.426L343.711 195.899L338.162 199.377C337.857 199.568 337.51 199.568 337.206 199.377L331.657 195.899L326.118 192.426C325.81 192.232 325.633 191.896 325.633 191.506V184.565V177.624C325.633 177.233 325.81 176.898 326.118 176.704L331.657 173.23L337.206 169.753C337.51 169.562 337.857 169.562 338.162 169.753Z" fill="#007500"/>
</g>
<path d="M493.715 233.571C498.602 233.571 502.563 229.61 502.563 224.723C502.563 219.836 498.602 215.875 493.715 215.875C488.829 215.875 484.867 219.836 484.867 224.723C484.867 229.61 488.829 233.571 493.715 233.571Z" fill="#E6E7E8"/>
<path d="M489.547 229.905V219.336H494.034C495.171 219.336 495.997 219.44 496.499 219.616C497.016 219.808 497.429 220.148 497.724 220.635C498.034 221.122 498.196 221.683 498.196 222.303C498.196 223.1 497.961 223.749 497.488 224.266C497.031 224.783 496.337 225.108 495.407 225.241C495.865 225.506 496.248 225.802 496.543 226.126C496.838 226.451 497.252 227.027 497.754 227.839L499.053 229.905H496.499L494.949 227.602C494.403 226.79 494.034 226.259 493.828 226.053C493.636 225.845 493.415 225.698 493.193 225.609C492.971 225.536 492.602 225.491 492.115 225.491H491.687V229.905H489.547ZM491.687 223.809H493.266C494.285 223.809 494.919 223.765 495.185 223.676C495.436 223.587 495.628 223.44 495.776 223.233C495.924 223.026 495.997 222.761 495.997 222.436C495.997 222.082 495.894 221.801 495.702 221.58C495.525 221.358 495.245 221.226 494.905 221.166C494.728 221.137 494.211 221.122 493.355 221.122H491.688V223.809H491.687Z" fill="#373535"/>
<path d="M489.547 229.905V219.336H494.034C495.171 219.336 495.997 219.44 496.499 219.616C497.016 219.808 497.429 220.148 497.724 220.635C498.034 221.122 498.196 221.683 498.196 222.303C498.196 223.1 497.961 223.749 497.488 224.266C497.031 224.783 496.337 225.108 495.407 225.241C495.865 225.506 496.248 225.802 496.543 226.126C496.838 226.451 497.252 227.027 497.754 227.839L499.053 229.905H496.499L494.949 227.602C494.403 226.79 494.034 226.259 493.828 226.053C493.636 225.845 493.415 225.698 493.193 225.609C492.971 225.536 492.602 225.491 492.115 225.491H491.687V229.905H489.547ZM491.687 223.809H493.266C494.285 223.809 494.919 223.765 495.185 223.676C495.436 223.587 495.628 223.44 495.776 223.233C495.924 223.026 495.997 222.761 495.997 222.436C495.997 222.082 495.894 221.801 495.702 221.58C495.525 221.358 495.245 221.226 494.905 221.166C494.728 221.137 494.211 221.122 493.355 221.122H491.688V223.809H491.687Z" stroke="#373535" stroke-width="0.288071" stroke-miterlimit="22.9256"/>
<defs>
<linearGradient id="paint0_linear_3028_84" x1="0" y1="179.961" x2="474.254" y2="179.961" gradientUnits="userSpaceOnUse">
<stop stop-color="#A10214"/>
<stop offset="1" stop-color="#AB0F0F"/>
</linearGradient>
</defs>
</svg>
