<svg viewBox="0 0 173 34.99" xmlns="http://www.w3.org/2000/svg"><path d="m34.94.55c.11-.15.08-.37-.07-.48-.12-.09-.29-.09-.41 0-10.1 7.36-23.81 7.36-33.91 0-.15-.12-.37-.08-.48.07-.09.12-.09.29 0 .41 7.37 10.1 7.37 23.79 0 33.89-.11.15-.08.37.07.48.12.09.29.09.41 0 10.1-7.36 23.81-7.36 33.91 0 .15.11.37.08.48-.07.09-.12.09-.29 0-.41-7.37-10.1-7.37-23.79 0-33.89zm23.87 14.83h-10.84v-9.83h-4.17v23.79h4.17v-10.56h10.84v10.56h4.17v-23.79h-4.17zm11.31 3.4h12.01v-3.4h-12.01v-6.23h12.97v-3.6h-17.14v23.79h17.37v-3.6h-13.21v-6.96zm31.13 4.3h-.07l-10.87-17.53h-4.4v23.79h3.97v-17.49h.1l10.84 17.5h4.4v-23.8h-3.97zm22.16 0h-.07l-10.87-17.53h-4.4v23.79h3.97v-17.49h.1l10.84 17.5h4.4v-23.8h-3.97zm36.38 2.67v-6.96h12v-3.4h-12v-6.23h12.97v-3.6h-17.14v23.79h17.37v-3.6h-13.21zm-16.64-5.37h5.98c-.19 1.65-1.02 3.16-2.32 4.2-1.29 1.14-2.95 1.76-4.67 1.76h-.02c-2.04 0-3.97-.8-5.72-2.37-1.86-1.64-2.89-4.01-2.82-6.49-.06-2.37.85-4.67 2.53-6.35 1.64-1.7 3.91-2.63 6.27-2.58 2.76 0 5.14 1.3 7.07 3.86l.11.15 2.83-2.7-.1-.12c-1.28-1.55-2.86-2.83-4.65-3.77-4.84-2.2-10.54-1.19-14.34 2.53-4.91 4.93-4.94 12.89-.07 17.85 2.28 2.38 5.45 3.72 8.75 3.69h.28c3.21 0 6.26-1.39 8.35-3.82.96-1.06 1.69-2.31 2.14-3.67.45-1.57.67-3.2.64-4.83v-.96h-10.25v3.6z" fill-rule="evenodd"/></svg>