<svg xmlns="http://www.w3.org/2000/svg" width="76" height="50" fill="#022021"><path fill="currentColor" d="M49.687 12.02v10.378h-1.632l-5.615-7.499v7.499h-1.632V12.02h1.632l5.533 7.808V12.02h1.714ZM42.44 36.548v-8.897h-1.632v10.394h8.928v-1.448l-7.296-.049Zm19.588 1.448h1.99l-4.276-6.148 3.918-4.197h-2.09l-4.897 5.173V27.65h-1.632v10.394h1.633v-3.253l1.762-1.806 3.592 5.01ZM58.99 11.971H55.01V22.35h3.917a4.73 4.73 0 0 0 3.831-1.363A4.699 4.699 0 0 0 64.1 17.16a4.685 4.685 0 0 0-1.363-3.793 4.721 4.721 0 0 0-3.81-1.347l.064-.049Zm0 8.946h-2.285v-7.466h2.22c2.187 0 3.412 1.367 3.412 3.758 0 2.39-1.225 3.757-3.412 3.757l.065-.049ZM30.948 29.05c-.739 0-1.462.219-2.076.628a3.713 3.713 0 0 0-.566 5.73 3.742 3.742 0 0 0 4.073.808 3.736 3.736 0 0 0 1.678-1.372c.41-.612.63-1.332.63-2.07a3.735 3.735 0 0 0-1.1-2.628 3.761 3.761 0 0 0-2.639-1.096Zm0-1.626a5.383 5.383 0 0 1 2.98.91 5.356 5.356 0 0 1 1.97 2.404 5.334 5.334 0 0 1-1.174 5.827 5.377 5.377 0 0 1-5.85 1.152 5.366 5.366 0 0 1-2.408-1.97 5.337 5.337 0 0 1 .674-6.762 5.372 5.372 0 0 1 3.808-1.561Zm-9.157-6.507h-8.047V12.02h-1.632v10.378h8.928l.751-1.48Zm-.734 8.133v-1.399h-8.994v10.394h1.632v-3.741h6.53v-1.448h-6.53v-3.822l7.362.016Zm13.695-4.034h1.763L31.16 14.444l2.546-5.01h-1.828l-6.53 13.012h1.764l3.1-6.18 4.539 8.75Zm39.616-23.39H1.632v46.748h72.736V1.627ZM76 0v50H0V0h76Z"/></svg>