<?xml version="1.0" encoding="UTF-8"?>
<svg width="127px" height="40px" viewBox="0 0 127 40" version="1.1" xmlns="http://www.w3.org/2000/svg" xmlns:xlink="http://www.w3.org/1999/xlink">
    <title>Logo@3x</title>
    <g id="控件" stroke="none" stroke-width="1" fill="none" fill-rule="evenodd">
        <g id="Nav-Hedar" transform="translate(-119, -27)">
            <g id="Logo" transform="translate(119.7323, 29.75)">
                <g id="编组-4" transform="translate(-0, 0)">
                    <g id="编组-3" transform="translate(20.7, 6.9278)">
                        <path d="M34.1939516,8.70846774 L34.1939516,6.70524194 L30.4100806,6.70524194 L30.4100806,19.2810484 L34.6391129,19.2810484 L34.6391129,13.9947581 C34.6391129,11.8245968 36.225,10.4612903 38.1725806,10.4612903 C38.3951613,10.4612903 38.6177419,10.4891129 38.8403226,10.5447581 L38.8403226,6.70524194 C38.5620968,6.67741935 38.283871,6.64959677 38.0056452,6.64959677 C36.4197581,6.64959677 35.028629,7.45645161 34.2217742,8.70846774 L34.1939516,8.70846774 Z" id="路径" fill="#0B52D1"></path>
                        <polygon id="路径" fill="#0B52D1" points="31.2447581 0.8625 16.0814516 0.8625 16.0814516 4.36814516 21.5625 4.36814516 21.5625 19.308871 25.7637097 19.308871 25.7637097 4.36814516 31.2447581 4.36814516"></polygon>
                        <rect id="矩形" fill="#0B52D1" fill-rule="nonzero" x="40.9548387" y="6.73306452" width="4.22903226" height="12.5758065"></rect>
                        <path d="M43.0693548,0 C41.7616935,0 40.7044355,1.05725806 40.7044355,2.33709677 C40.7044355,3.61693548 41.7616935,4.67419355 43.0693548,4.67419355 C44.3770161,4.67419355 45.4342742,3.61693548 45.4342742,2.33709677 C45.4342742,1.05725806 44.3770161,0 43.0693548,0 Z" id="路径" fill="#0B52D1"></path>
                        <path d="M55.2834677,9.96048387 C53.6419355,9.96048387 52.3342742,11.3237903 52.3342742,13.0209677 C52.3342742,14.7181452 53.6697581,16.0814516 55.2834677,16.0814516 C56.8971774,16.0814516 58.2326613,14.7181452 58.2326613,13.0209677 C58.2326613,11.3237903 56.8971774,9.96048387 55.2834677,9.96048387 Z M55.7008065,6.09314516 C59.4290323,6.09314516 62.4616935,9.18145161 62.4616935,13.0209677 C62.4616935,16.8604839 59.4290323,19.9487903 55.7008065,19.9487903 C54.4209677,19.9487903 53.2524194,19.503629 52.3342742,18.7245968 L52.3342742,25.1794355 L48.1052419,25.1794355 L48.1052419,6.73306452 L51.8891129,6.73306452 L51.8891129,7.87379032 C52.8072581,6.78870968 54.1705645,6.12096774 55.6729839,6.12096774 L55.7008065,6.09314516 Z" id="形状" fill="#0B52D1"></path>
                        <polygon id="路径" fill="#0B52D1" points="98.4362903 16.053629 104.529435 9.84919355 104.529435 6.70524194 93.6508065 6.70524194 93.6508065 9.96048387 99.3266129 9.96048387 93.4560484 16.053629 93.4560484 19.3645161 104.835484 19.3645161 104.835484 16.053629"></polygon>
                        <rect id="矩形" fill="#0B52D1" fill-rule="nonzero" x="86.8899194" y="6.73306452" width="4.14556452" height="12.6592742"></rect>
                        <path d="M88.9487903,0 C87.6689516,0 86.6116935,1.05725806 86.6116935,2.36491935 C86.6116935,3.67258065 87.641129,4.72983871 88.9487903,4.72983871 C90.2564516,4.72983871 91.2858871,3.67258065 91.2858871,2.36491935 C91.2858871,1.05725806 90.2564516,0 88.9487903,0 Z" id="路径" fill="#0B52D1"></path>
                        <path d="M82.0487903,9.68225806 C83.4399194,8.95887097 84.2745968,7.51209677 84.2745968,5.73145161 C84.2745968,4.81330645 84.0241935,3.50564516 82.8556452,2.4483871 C81.7705645,1.47459677 80.1568548,0.973790323 78.0979839,0.973790323 L70.0294355,0.973790323 L70.0294355,19.4479839 L78.3762097,19.4479839 C82.1600806,19.4479839 84.8032258,17.1665323 84.8032258,13.8834677 C84.8032258,11.6576613 83.4120968,10.2665323 82.0766129,9.71008065 L82.0487903,9.68225806 Z M74.0637097,8.17983871 L74.0637097,4.1733871 L77.7641129,4.1733871 C79.3221774,4.1733871 80.2403226,4.89677419 80.2403226,6.12096774 C80.2403226,7.48427419 79.3778226,8.17983871 77.6528226,8.17983871 L74.0637097,8.17983871 Z M80.5741935,13.7165323 C80.5741935,15.3858871 79.5725806,16.1927419 77.5415323,16.1927419 L74.0358871,16.1927419 L74.0358871,11.3794355 L77.5137097,11.3794355 C79.5169355,11.3794355 80.5741935,12.1862903 80.5741935,13.7165323 Z" id="形状" fill="#0B52D1" fill-rule="nonzero"></path>
                        <path d="M67.9705645,17.5560484 C67.9705645,18.8080645 66.9689516,19.8096774 65.7169355,19.8096774 C64.4649194,19.8096774 63.4633065,18.8080645 63.4633065,17.5560484 C63.4633065,16.3040323 64.4649194,15.3024194 65.7169355,15.3024194 C66.9689516,15.3024194 67.9705645,16.3040323 67.9705645,17.5560484 Z" id="路径" fill="#FFB400" fill-rule="nonzero"></path>
                        <path d="M6.26008065,11.2959677 L0,27.5721774 L1.80846774,27.5721774 C6.59395161,27.5721774 10.4612903,23.6491935 10.4612903,18.7802419 C10.4612903,15.6084677 8.79193548,12.8262097 6.28790323,11.2959677 L6.26008065,11.2959677 Z" id="路径" fill="#49CC29"></path>
                    </g>
                    <path d="M8.4858871,0 L7.70685484,16.9995968 L1.19637097,34.4721774 L20.7,34.4721774 L29.2137097,12.408871 C29.6310484,11.3237903 30.1040323,10.2108871 30.4379032,9.12580645 L30.716129,8.40241935 C32.3020161,4.36814516 29.3528226,0 25.0125,0 L8.51370968,0" id="路径" fill="#0B52D1"></path>
                    <path d="M8.4858871,0 C3.78387097,0 0,3.86733871 0,8.625 C0,13.3826613 3.81169355,17.25 8.4858871,17.25 C13.1600806,17.25 16.9717742,13.3826613 16.9717742,8.625 C16.9717742,3.86733871 13.1600806,0 8.4858871,0 Z" id="路径" fill="#FFB400"></path>
                </g>
            </g>
        </g>
    </g>
</svg>