<svg xmlns="http://www.w3.org/2000/svg" width="186" height="24" viewBox="0 0 186 24"><path fill="#0D61FF" d="M22.9109624,21.0339426 C22.9109624,17.3368146 20.134843,14.767624 16.3057128,14.767624 C14.2954195,14.767624 12.6361297,15.5195822 11.5193001,16.8355091 C10.4662892,15.5195822 8.8389089,14.767624 6.79670612,14.767624 C2.99948533,14.767624 0,17.3368146 0,21.0339426 L0,31.4986945 L4.46731858,31.4986945 L4.46731858,20.9712794 C4.46731858,19.5926893 5.45651055,18.5900783 6.82861554,18.5900783 C8.20072054,18.5900783 9.22182192,19.5926893 9.22182192,20.9712794 L9.22182192,31.4986945 L13.6891405,31.4986945 L13.6891405,20.9712794 C13.6891405,19.5926893 14.6783325,18.5900783 16.0504375,18.5900783 C17.4225425,18.5900783 18.4436438,19.5926893 18.4436438,20.9712794 L18.4436438,31.4986945 L22.9109624,31.4986945 L22.9109624,21.0339426 Z M41.641791,28.8668407 L39.0571282,26.2036554 C37.9722079,27.5509138 36.75965,28.1148825 34.9089038,28.1148825 C32.6114256,28.1148825 31.111683,26.8929504 30.6330417,24.7624021 L42.7905301,24.7624021 C42.8862584,24.3550914 42.9181678,23.8224543 42.9181678,23.383812 C42.9181678,18.3707572 39.6634071,14.767624 34.8131755,14.767624 C29.6757591,14.767624 26.006176,18.3394256 26.006176,23.383812 C26.006176,28.3655352 29.6438497,32 34.8769943,32 C37.6850232,32 39.9505919,31.0287206 41.641791,28.8668407 Z M34.7174472,18.5900783 C36.7915594,18.5900783 38.2274833,19.9373368 38.5465775,21.9738903 L30.6330417,21.9738903 C31.0797735,19.8746736 32.5476068,18.5900783 34.7174472,18.5900783 Z M45.0241894,23.383812 C45.0241894,28.45953 48.3427689,32 53.0334534,32 C55.4585692,32 57.5326814,31.0287206 58.5856922,29.305483 L58.7133299,29.305483 C58.6814205,29.618799 58.6495111,30.0887728 58.6495111,30.7780679 L58.6495111,31.4986945 L62.7339166,31.4986945 L62.7339166,8.25 L58.3304169,8.25 L58.3304169,15.5822454 C58.3304169,16.45953 58.3623263,16.772846 58.3942357,16.9921671 L58.266598,16.9921671 C57.4369532,15.613577 55.4266598,14.767624 53.2249099,14.767624 C48.4704066,14.767624 45.0241894,18.308094 45.0241894,23.383812 Z M53.990736,28.0835509 C51.4060731,28.0835509 49.5234174,26.1409922 49.5234174,23.3211488 C49.5234174,20.5326371 51.4060731,18.5900783 53.990736,18.5900783 C56.6073083,18.5900783 58.489964,20.5326371 58.489964,23.3211488 C58.489964,26.1409922 56.6073083,28.0835509 53.990736,28.0835509 Z M69.2753474,13.1383812 C70.7431806,13.1383812 71.9238291,12.0104439 71.9238291,10.5691906 C71.9238291,9.12793734 70.7431806,8 69.2753474,8 C67.8075142,8 66.6268657,9.12793734 66.6268657,10.5691906 C66.6268657,12.0104439 67.8075142,13.1383812 69.2753474,13.1383812 Z M71.5409161,31.4986945 L71.5409161,15.2689295 L67.0735975,15.2689295 L67.0735975,31.4986945 L71.5409161,31.4986945 Z M74.8275862,23.383812 C74.8275862,28.45953 78.1461657,32 82.8687597,32 C85.3896037,32 87.4318065,30.9347258 88.389089,29.2428198 L88.5167267,29.2428198 C88.4848173,29.5874674 88.4529079,30.0261097 88.4529079,30.7467363 L88.4529079,31.4986945 L92.5373134,31.4986945 L92.5373134,15.2689295 L89.4500772,15.2689295 C88.8065706,16.4804178 88.4954538,17.1697128 88.5167267,17.3368146 L88.389089,17.3368146 C87.5275347,15.8328982 85.5810602,14.767624 83.0602162,14.767624 C78.3376222,14.767624 74.8275862,18.308094 74.8275862,23.383812 Z M83.7941328,28.1148825 C81.2094699,28.1148825 79.3268142,26.1409922 79.3268142,23.3211488 C79.3268142,20.5326371 81.2094699,18.5900783 83.7941328,18.5900783 C86.4107051,18.5900783 88.2933608,20.5326371 88.2933608,23.3211488 C88.2933608,26.1409922 86.4107051,28.1148825 83.7941328,28.1148825 Z M114.586722,23.383812 C114.586722,18.308094 111.140504,14.767624 106.41791,14.767624 C104.184251,14.767624 102.205867,15.6762402 101.344313,17.0548303 L101.248585,17.0548303 C101.280494,16.8041775 101.312403,16.4908616 101.312403,15.6449086 L101.312403,8.25 L96.8769943,8.25 L96.8769943,31.4986945 L100.993309,31.4986945 L100.993309,30.8720627 C100.993309,30.151436 100.9614,29.6814621 100.92949,29.3681462 L101.025219,29.3681462 C102.07823,31.0287206 104.152342,32 106.577458,32 C111.268142,32 114.586722,28.45953 114.586722,23.383812 Z M105.620175,28.1148825 C103.003603,28.1148825 101.152856,26.1409922 101.152856,23.3211488 C101.152856,20.5013055 103.003603,18.5900783 105.620175,18.5900783 C108.236747,18.5900783 110.119403,20.5013055 110.119403,23.3211488 C110.119403,26.1409922 108.236747,28.1148825 105.620175,28.1148825 Z M125.62738,32 C130.764797,32 134.498199,28.3655352 134.498199,23.383812 C134.498199,18.3707572 130.764797,14.767624 125.62738,14.767624 C120.489964,14.767624 116.788471,18.3707572 116.788471,23.383812 C116.788471,28.3655352 120.489964,32 125.62738,32 Z M125.62738,28.1148825 C123.042717,28.1148825 121.25579,26.1409922 121.25579,23.3211488 C121.25579,20.5326371 123.042717,18.5900783 125.62738,18.5900783 C128.243953,18.5900783 129.998971,20.5326371 129.998971,23.3211488 C129.998971,26.1409922 128.243953,28.1148825 125.62738,28.1148825 Z M136.327586,23.383812 C136.327586,28.45953 139.999764,32 144.722358,32 C147.243202,32 149.285405,30.9347258 150.242687,29.2428198 L150.370325,29.2428198 C150.338415,29.5874674 150.306506,30.0261097 150.306506,30.7467363 L150.306506,31.4986945 L154.390912,31.4986945 L154.390912,15.2689295 L151.303675,15.2689295 C150.660169,16.4804178 150.349052,17.1697128 150.370325,17.3368146 L150.242687,17.3368146 C149.381133,15.8328982 147.434658,14.767624 144.913814,14.767624 C140.19122,14.767624 136.327586,18.308094 136.327586,23.383812 Z M145.647731,28.1148825 C143.063068,28.1148825 141.180412,26.1409922 141.180412,23.3211488 C141.180412,20.5326371 143.063068,18.5900783 145.647731,18.5900783 C148.264303,18.5900783 150.146959,20.5326371 150.146959,23.3211488 C150.146959,26.1409922 148.264303,28.1148825 145.647731,28.1148825 Z M158.7,15.2689295 L158.7,31.4986945 L163.167319,31.4986945 L163.167319,19.1227154 L166.677355,19.1227154 L166.677355,15.2689295 L158.7,15.2689295 Z M168.290273,23.383812 C168.290273,28.45953 171.608852,32 176.299537,32 C178.724653,32 180.798765,31.0287206 181.851776,29.305483 L181.979413,29.305483 C181.947504,29.618799 181.915594,30.0887728 181.915594,30.7780679 L181.915594,31.4986945 L186,31.4986945 L186,8.25 L181.5965,8.25 L181.5965,15.5822454 C181.5965,16.45953 181.62841,16.772846 181.660319,16.9921671 L181.532681,16.9921671 C180.703037,15.613577 178.692743,14.767624 176.490993,14.767624 C171.73649,14.767624 168.290273,18.308094 168.290273,23.383812 Z M177.256819,28.0835509 C174.672156,28.0835509 172.789501,26.1409922 172.789501,23.3211488 C172.789501,20.5326371 174.672156,18.5900783 177.256819,18.5900783 C179.873392,18.5900783 181.756047,20.5326371 181.756047,23.3211488 C181.756047,26.1409922 179.873392,28.0835509 177.256819,28.0835509 Z" transform="translate(0 -8)"/></svg>