<svg height="600" viewBox="0 0 500 500" width="500" xmlns="http://www.w3.org/2000/svg" xmlns:xlink="http://www.w3.org/1999/xlink"><clipPath id="a"><path d="m0 841.89h1190.55v-841.89h-1190.55z"/></clipPath><g clip-path="url(#a)" fill="#0052d9" transform="matrix(1.333333 0 0 -1.333333 -926.3171995681 908.62367481551)"><path d="m0 0h-14.296l5.623-8.065h7.248l-6.093-34.697h12.694l6.104 34.697h15.834l-24.998 20.11z" transform="translate(1021.9183 551.2567)"/><path d="m0 0h-57.679l-1.577-9.085h22.395l-9.382-53.373h12.696l9.384 53.373h22.588z" transform="translate(773.7746 570.9527)"/><path d="m0 0h-22.08c1.325 4.375 5.616 10.42 13.427 10.42 8.498 0 9.395-6.461 8.653-10.42m-6.58 17.796c-16.139 0-26.469-10.157-28.52-21.955-2.272-13.105 5.779-22.695 22.063-22.695 7.279 0 14.088 1.367 19.617 4.442l1.72 9.772c-5.405-3.868-12.28-6.034-18.108-6.034-8.118 0-14.574 3.381-13.558 11.136h33.549c.404.919.888 2.533 1.241 4.544 1.625 9.363-1.696 20.79-18.004 20.79" transform="translate(789.7455 534.4207)"/><path d="m0 0c-7.926 0-13.859-3.286-16.657-6.604h-.296l-11.176 6.604c-.412-3.706-.962-8.736-1.821-13.677l-5.215-30.046h12.692l4.415 25.163c.214 1.231.633 2.544 1.178 3.43 1.897 3.302 5.875 6.342 10.919 6.342 6.932 0 8.816-4.672 7.753-10.805l-4.245-24.13h12.696l4.469 25.399c2.35 13.524-5.966 18.324-14.712 18.324" transform="translate(839.2366 552.217)"/><path d="m0 0c-7.927 0-13.859-3.286-16.657-6.604h-.295l-11.176 6.604c-.412-3.706-.964-8.736-1.824-13.677l-5.213-30.046h12.69l4.418 25.163c.21 1.231.632 2.544 1.174 3.43 1.899 3.302 5.877 6.342 10.921 6.342 6.936 0 8.816-4.672 7.753-10.805l-4.24-24.13h12.694l4.466 25.399c2.349 13.524-5.965 18.324-14.711 18.324" transform="translate(991.5405 552.217)"/><path d="m0 0h-22.08c1.326 4.375 5.616 10.42 13.422 10.42 8.502 0 9.4-6.461 8.658-10.42m-6.583 17.796c-16.137 0-26.466-10.157-28.518-21.955-2.272-13.105 5.779-22.695 22.064-22.695 7.277 0 14.087 1.367 19.619 4.442l1.717 9.772c-5.403-3.868-12.279-6.034-18.11-6.034-8.114 0-14.565 3.381-13.555 11.136h33.554c.399.919.884 2.533 1.239 4.544 1.621 9.363-1.702 20.79-18.01 20.79" transform="translate(942.0505 534.4207)"/><path d="m0 0c-2.302-13.272 6.992-22.877 22.72-22.877 6.254 0 13.724 1.794 16.55 2.847l2.055 11.428c-4.413-4.742-10.393-5.728-14.633-5.728-8.642 0-15.183 5.031-13.662 13.799 1.323 7.836 8.746 13.861 18.422 13.861 3.943 0 9.289-1.32 12.659-5.756l1.969 11.625c-2.729 1.047-7.1 2.544-13.571 2.544-17.646 0-30.284-8.943-32.509-21.743" transform="translate(859.2769 530.4508)"/><path d="m0 0c-1.202 1.343-2.474 3.535-3.252 5.09h-2.616c-1.414-1.767-3.535-3.747-5.373-5.09zm-2.616-5.303h-15.483l4.666-2.12-.848-4.243h10.251zm7.353.99-1.626-7.353h3.464c2.333 0 4.03-.494 3.606-3.393-.778-5.232-2.192-12.514-3.323-18.665h-18.806l-1.556 5.585h13.857c.637 2.97 1.414 6.576 1.839 9.545.141.99-.283 1.343-1.273 1.343h-23.472l2.121 11.383c-1.697-.778-4.242-1.626-6.717-2.121l1.485 6.858c4.383 1.06 8.837 3.181 11.595 6.221h-10.464l1.202 5.374h12.938c.707.989 1.273 2.262 1.556 3.181h-13.999l1.06 5.585h5.02l-1.838 8.272h7.141l1.696-8.272h2.475c.778 2.757 1.343 6.434 1.414 9.474h7.282c-.141-3.04-.566-6.646-1.273-9.474h2.899c1.131 2.545 2.262 5.585 3.182 8.272h7.282c-.99-2.545-2.263-5.656-3.465-8.272h5.091l-1.343-5.585h-15.201c-.283-.919-.848-2.263-1.343-3.181h18.664l-1.272-5.374h-10.888c2.333-3.464 7.918-6.08 12.231-6.999l-2.404-6.08c-2.969.636-6.221 2.05-8.837 3.676m-7.919-21.068h-23.967l-.989 5.444h26.158v-.071zm-28.209 46.449h-3.535c-.565-3.393-1.131-6.928-1.838-10.604h4.808l1.767 9.261c.212 1.061-.212 1.343-1.202 1.343m-1.484-16.19h-4.879c-.707-3.676-1.484-7.494-2.262-11.312h5.09zm9.827 18.17c-3.464-19.018-6.575-37.824-10.11-56.772h-7.141c1.414 7.141 3.04 14.706 4.242 21.705h-5.09c-1.556-7.353-3.182-14.705-4.737-21.705h-7.141c6.01 19.16 8.979 38.885 12.373 60.661h13.362c3.464 0 4.878-.566 4.242-3.889" transform="translate(864.0397 461.84)"/><path d="m0 0h-33.016l1.414-6.292h24.674c1.626 0 2.403-.212 2.05-2.051-.919-5.09-1.909-10.251-2.899-15.271h-10.746l1.838 10.747-7.494 4.383-2.758-15.13h-7.989l-1.06-6.292h7.848c-1.626-10.181-3.606-20.573-5.656-30.754h8.554c1.98 10.251 3.96 20.503 5.656 30.754h10.676c-1.768-10.251-3.747-20.786-5.727-30.754h15.13l2.616 6.363h-8.06c3.182 16.19 6.505 33.087 9.333 49.419.636 3.535-.071 4.878-4.384 4.878m-36.269-13.009c-1.06 4.949-2.404 10.11-3.535 14.918h-7.989c1.061-4.878 2.192-10.11 3.111-14.918zm-17.463-3.323h14.847c-1.484-9.897-3.181-19.937-5.09-29.976 2.828 2.121 5.797 4.383 8.484 6.716l-1.556-9.12c-5.019-4.242-11.948-9.191-18.311-12.797 2.758 12.797 5.303 26.371 7.141 38.885h-6.646z" transform="translate(939.1528 488.7058)"/></g></svg>