<svg width="800" height="281" viewBox="0 0 800 281" fill="none" xmlns="http://www.w3.org/2000/svg">
<path d="M720.194 280.447C698.69 280.447 678.423 272.043 663.181 256.801L544.458 138.078C532.511 126.132 524.684 111.22 521.883 94.9888C520.235 85.5141 520.318 75.7921 522.13 66.3174H487.032C478.464 66.3174 474.839 72.0022 473.438 75.3802C472.038 78.7581 470.554 85.3493 476.651 91.4461L527.98 142.775C539.926 154.721 547.753 169.634 550.554 185.864C553.191 200.859 551.378 216.348 545.529 230.684C539.597 244.937 529.875 257.131 517.434 265.947C503.922 275.421 487.939 280.447 471.049 280.447H469.401C447.897 280.447 427.63 272.043 412.388 256.801L401.018 245.432C395.58 253.423 388.824 260.344 380.915 265.864C367.403 275.339 351.42 280.365 334.53 280.365C313.026 280.365 292.758 271.961 277.516 256.719L91.3166 70.5192C88.5153 67.718 84.8078 66.235 80.9355 66.235C72.367 66.235 68.7419 71.9198 67.3413 75.2978C65.9407 78.6757 64.4577 85.2669 70.5545 91.3637L121.883 142.692C133.829 154.639 141.656 169.551 144.458 185.782C147.094 200.777 145.282 216.266 139.432 230.602C133.5 244.855 123.778 257.049 111.337 265.864C97.8253 275.339 81.8418 280.365 64.952 280.365H41.4711C23.263 280.365 8.51535 265.617 8.51535 247.409C8.51535 229.201 23.263 214.453 41.4711 214.453H64.6225C73.1909 214.453 76.8161 208.768 78.2167 205.39C79.6173 202.013 81.1003 195.421 75.0035 189.325L23.7574 138.078C11.8109 126.132 3.98394 111.22 1.1827 94.9888C-1.45376 79.994 0.358808 64.5048 6.20845 50.1691C12.1405 35.9157 21.8624 23.7221 34.3032 14.9064C47.815 5.43167 63.881 0.405921 80.7708 0.405921C102.274 0.405921 122.542 8.80963 137.784 24.0516L323.984 210.251C326.785 213.053 330.493 214.536 334.365 214.536C342.933 214.536 346.559 208.851 347.959 205.473C349.36 202.095 350.843 195.504 344.828 189.489L212.017 56.6778C199.164 43.8251 199.164 22.9806 212.017 10.0455C224.87 -2.88965 245.714 -2.80726 258.649 10.0455L391.378 142.775C391.461 142.857 391.461 142.857 391.543 142.939L458.855 210.251C461.656 213.053 465.364 214.536 469.236 214.536H470.884C479.453 214.536 483.078 208.851 484.478 205.473C485.879 202.095 487.362 195.504 481.265 189.407L430.019 138.078C418.073 126.132 410.246 111.22 407.444 94.9888C404.808 79.994 406.62 64.5048 412.47 50.1691C418.402 35.9157 428.124 23.7221 440.565 14.9064C454.077 5.43167 470.143 0.405921 487.032 0.405921H621.244C639.453 0.405921 654.2 15.1536 654.2 33.3616C654.2 51.5697 639.453 66.3174 621.244 66.3174H601.471C592.903 66.3174 589.277 72.0022 587.877 75.3802C586.476 78.7581 584.993 85.3493 591.09 91.4461L709.813 210.169C712.614 212.97 716.322 214.453 720.194 214.453C727.691 214.453 733.788 208.356 733.788 200.859C733.788 182.651 748.536 167.903 766.744 167.903C784.952 167.903 799.7 182.651 799.7 200.859C799.782 244.773 764.025 280.447 720.194 280.447Z" fill="url(#paint0_linear_1_3)"/>
<path d="M720.194 251.611C706.353 251.611 693.335 246.256 683.531 236.451L564.808 117.728C549.731 102.651 545.446 80.9826 553.603 61.2916C557.805 51.2401 564.643 43.0836 573.129 37.5635H487.032C469.071 37.5635 453.665 47.8622 446.744 64.4224C439.823 80.9826 443.531 99.1907 456.219 111.879L507.547 163.207C522.625 178.284 526.909 199.953 518.752 219.644C510.596 239.335 492.223 251.611 470.884 251.611H469.236C455.395 251.611 442.377 246.256 432.573 236.451L385.199 189.077C387.341 199.046 386.353 209.592 382.233 219.644C374.077 239.335 355.704 251.611 334.365 251.611C320.524 251.611 307.506 246.256 297.702 236.451L111.502 50.2514C103.263 42.0125 92.3053 37.4811 80.6884 37.4811C62.7275 37.4811 47.3207 47.7798 40.4 64.34C33.5617 80.9003 37.1868 99.1083 49.8748 111.796L101.203 163.125C116.281 178.202 120.565 199.87 112.408 219.561C104.252 239.252 85.8789 251.528 64.5401 251.528H41.4711C39.1642 251.528 37.3516 249.716 37.3516 247.409C37.3516 245.102 39.1642 243.29 41.4711 243.29H64.6225C82.5833 243.29 97.9901 232.991 104.911 216.431C111.832 199.87 108.124 181.662 95.4361 168.974L44.1075 117.646C29.0303 102.651 24.7461 80.9826 32.9026 61.2916C41.0591 41.5182 59.3496 29.2422 80.7708 29.2422C94.6122 29.2422 107.63 34.5975 117.434 44.4018L303.634 230.602C311.873 238.841 322.83 243.372 334.447 243.372C352.408 243.372 367.815 233.073 374.736 216.513C381.574 199.953 378.031 181.827 365.343 169.139L232.449 36.3277C230.802 34.6799 230.802 32.1258 232.449 30.478C234.097 28.8302 236.651 28.8302 238.299 30.478L371.028 163.207L371.111 163.29L438.423 230.602C446.662 238.841 457.619 243.372 469.236 243.372H470.884C488.845 243.372 504.252 233.073 511.172 216.513C518.011 199.953 514.386 181.745 501.698 169.057L450.369 117.728C435.292 102.651 431.008 80.9826 439.164 61.2916C447.321 41.6006 465.693 29.3246 487.032 29.3246H621.244C623.551 29.3246 625.364 31.1371 625.364 33.444C625.364 35.7509 623.551 37.5635 621.244 37.5635H601.471C583.51 37.5635 568.103 47.8622 561.183 64.4224C554.344 80.9826 557.97 99.1907 570.657 111.879L689.38 230.602C697.619 238.841 708.577 243.372 720.194 243.372C743.593 243.372 762.625 224.34 762.625 200.941C762.625 198.635 764.437 196.822 766.744 196.822C769.051 196.822 770.864 198.635 770.864 200.941C770.946 228.871 748.206 251.611 720.194 251.611Z" fill="white"/>
<defs>
<linearGradient id="paint0_linear_1_3" x1="-0.00794468" y1="14008.1" x2="79974.2" y2="14008.1" gradientUnits="userSpaceOnUse">
<stop stop-color="#FFA588"/>
<stop offset="0.271" stop-color="#FCB371"/>
<stop offset="0.8357" stop-color="#F4D837"/>
<stop offset="1" stop-color="#F1E425"/>
</linearGradient>
</defs>
</svg>
